<svg id="svg" version="1.1" xmlns="http://www.w3.org/2000/svg" xmlns:xlink="http://www.w3.org/1999/xlink" width="400" height="400" viewBox="0, 0, 400,400"><g id="svgg"><path id="path0" d="M120.361 108.777 C 112.791 111.662,108.109 121.065,110.850 127.881 C 112.530 132.059,110.191 129.564,146.465 165.894 C 175.810 195.286,179.249 198.860,178.756 199.453 C 178.453 199.818,163.529 214.805,145.591 232.758 C 108.189 270.192,110.395 267.576,110.406 274.475 C 110.426 286.638,122.212 293.551,133.200 287.843 C 133.970 287.443,149.582 272.156,167.893 253.871 L 201.186 220.625 234.093 253.498 C 252.192 271.578,267.450 286.704,268.000 287.111 C 274.984 292.281,286.638 289.546,290.298 281.878 C 291.832 278.663,292.000 277.941,292.000 274.543 C 292.000 267.781,294.032 270.175,256.226 232.401 C 238.062 214.251,223.200 199.224,223.200 199.006 C 223.200 198.789,238.107 183.669,256.326 165.406 C 289.602 132.049,289.792 131.845,291.549 127.481 C 291.797 126.866,292.000 124.939,292.000 123.200 C 292.000 121.461,291.797 119.534,291.549 118.919 C 289.210 113.109,286.891 110.790,281.081 108.451 C 279.656 107.877,274.538 107.866,272.760 108.434 C 268.728 109.720,268.135 110.269,234.658 143.700 C 216.428 161.905,201.307 176.800,201.055 176.800 C 200.804 176.800,185.659 161.860,167.400 143.600 C 149.141 125.340,133.976 110.400,133.701 110.400 C 133.425 110.400,133.200 110.254,133.200 110.076 C 133.200 108.427,123.780 107.474,120.361 108.777 " stroke="none" fill="#fbf9f9" fill-rule="evenodd"></path><path id="path1" d="M181.584 0.150 C 181.478 0.256,179.953 0.382,178.196 0.430 C 176.438 0.478,174.908 0.657,174.796 0.828 C 174.683 0.998,173.333 1.177,171.796 1.226 C 170.258 1.274,168.820 1.448,168.600 1.612 C 168.222 1.893,166.995 2.115,162.800 2.659 C 161.810 2.787,160.906 3.041,160.791 3.222 C 160.676 3.404,159.632 3.596,158.470 3.649 C 157.308 3.702,156.267 3.892,156.155 4.072 C 156.044 4.253,155.423 4.400,154.776 4.400 C 154.105 4.400,153.597 4.615,153.594 4.900 C 153.590 5.233,153.458 5.200,153.200 4.800 C 152.942 4.400,152.810 4.367,152.806 4.700 C 152.802 5.017,152.205 5.200,151.176 5.200 C 150.196 5.200,149.651 5.358,149.800 5.600 C 149.944 5.833,149.545 6.000,148.847 6.000 C 148.187 6.000,147.536 6.180,147.400 6.400 C 147.264 6.620,146.569 6.800,145.856 6.800 C 145.143 6.800,144.386 6.974,144.173 7.187 C 143.961 7.399,143.217 7.616,142.521 7.669 C 141.825 7.723,141.332 7.890,141.425 8.041 C 141.519 8.193,140.922 8.407,140.098 8.519 C 138.054 8.795,137.273 8.994,136.945 9.322 C 136.792 9.475,136.157 9.600,135.533 9.600 C 134.910 9.600,134.400 9.780,134.400 10.000 C 134.400 10.220,133.950 10.400,133.400 10.400 C 132.850 10.400,132.400 10.610,132.400 10.867 C 132.400 11.123,132.282 11.215,132.137 11.070 C 131.992 10.925,131.651 10.992,131.379 11.218 C 131.107 11.443,130.730 11.588,130.542 11.540 C 130.354 11.491,129.503 11.755,128.651 12.126 C 127.799 12.497,126.764 12.800,126.351 12.800 C 125.938 12.800,125.599 12.935,125.597 13.100 C 125.593 13.511,123.609 14.400,122.697 14.400 C 122.288 14.400,122.064 14.580,122.200 14.800 C 122.345 15.035,121.915 15.200,121.157 15.200 C 120.447 15.200,119.984 15.317,120.127 15.461 C 120.429 15.763,118.581 16.800,117.740 16.800 C 117.428 16.800,116.701 17.108,116.126 17.485 C 115.551 17.862,114.882 18.203,114.640 18.243 C 113.637 18.409,112.988 18.613,112.800 18.822 C 112.285 19.395,107.248 21.915,107.038 21.705 C 106.907 21.574,106.800 21.677,106.800 21.933 C 106.800 22.190,106.429 22.400,105.976 22.400 C 105.523 22.400,105.264 22.580,105.400 22.800 C 105.536 23.020,105.253 23.200,104.771 23.200 C 104.288 23.200,103.603 23.527,103.247 23.928 C 102.622 24.631,101.562 25.205,100.479 25.428 C 100.193 25.487,99.473 25.860,98.879 26.257 C 98.286 26.653,97.665 26.938,97.500 26.889 C 97.335 26.840,97.200 27.089,97.200 27.443 C 97.200 27.833,96.977 28.000,96.633 27.868 C 96.321 27.748,95.957 27.935,95.824 28.283 C 95.690 28.630,95.476 28.810,95.348 28.681 C 95.220 28.553,94.740 28.797,94.282 29.224 C 93.824 29.651,93.163 30.000,92.813 30.000 C 92.463 30.000,91.917 30.360,91.600 30.800 C 91.283 31.240,90.746 31.600,90.408 31.600 C 90.069 31.600,89.568 31.960,89.293 32.400 C 89.018 32.840,88.607 33.200,88.380 33.200 C 88.153 33.200,87.580 33.560,87.108 34.000 C 86.636 34.440,86.036 34.800,85.775 34.800 C 85.514 34.800,84.615 35.428,83.778 36.195 C 82.941 36.961,82.179 37.512,82.085 37.419 C 81.992 37.325,81.473 37.691,80.932 38.232 C 80.391 38.773,79.735 39.093,79.474 38.944 C 79.213 38.794,79.125 38.811,79.278 38.980 C 79.550 39.282,77.572 41.200,76.989 41.200 C 76.827 41.200,76.358 41.588,75.947 42.061 C 75.536 42.535,75.200 42.792,75.200 42.633 C 75.200 42.473,74.930 42.613,74.600 42.943 C 74.270 43.273,74.000 43.746,74.000 43.995 C 74.000 44.244,73.820 44.336,73.600 44.200 C 73.380 44.064,73.200 44.143,73.200 44.376 C 73.200 44.609,73.065 44.779,72.900 44.753 C 72.075 44.622,71.600 44.859,71.600 45.400 C 71.600 45.730,71.450 46.000,71.266 46.000 C 71.082 46.000,70.058 46.855,68.990 47.900 C 67.922 48.945,67.207 49.530,67.401 49.200 C 67.714 48.667,67.667 48.667,66.977 49.200 C 65.777 50.126,62.400 53.731,62.400 54.085 C 62.400 54.258,62.119 54.400,61.776 54.400 C 61.433 54.400,61.264 54.580,61.400 54.800 C 61.536 55.020,61.356 55.200,61.000 55.200 C 60.644 55.200,60.464 55.380,60.600 55.600 C 60.736 55.820,60.606 56.000,60.312 56.000 C 60.017 56.000,59.512 56.382,59.188 56.849 C 58.447 57.919,57.919 58.447,56.849 59.188 C 56.382 59.512,56.000 60.037,56.000 60.355 C 56.000 60.673,55.889 60.822,55.752 60.686 C 55.449 60.382,54.400 61.379,54.400 61.971 C 54.400 62.207,54.258 62.400,54.085 62.400 C 53.452 62.400,49.600 66.334,49.600 66.981 C 49.600 67.347,49.420 67.536,49.200 67.400 C 48.980 67.264,48.800 67.349,48.800 67.590 C 48.800 67.830,48.272 68.543,47.627 69.174 C 46.982 69.804,46.562 70.428,46.694 70.560 C 46.825 70.692,46.633 70.800,46.267 70.800 C 45.900 70.800,45.645 71.025,45.700 71.300 C 45.755 71.575,45.586 71.759,45.324 71.708 C 45.063 71.658,44.739 71.963,44.604 72.388 C 44.469 72.812,43.873 73.705,43.280 74.371 C 41.510 76.358,41.200 76.753,41.200 77.025 C 41.200 77.582,39.271 79.540,38.980 79.278 C 38.811 79.125,38.794 79.213,38.944 79.474 C 39.093 79.735,38.762 80.402,38.208 80.956 C 37.653 81.510,37.200 82.152,37.200 82.382 C 37.200 82.612,37.020 82.800,36.800 82.800 C 36.580 82.800,36.400 83.070,36.400 83.400 C 36.400 83.730,36.220 84.000,36.000 84.000 C 35.780 84.000,35.600 84.281,35.600 84.624 C 35.600 84.967,35.416 85.133,35.190 84.994 C 34.965 84.855,34.806 84.889,34.837 85.070 C 34.961 85.780,34.772 86.280,34.100 87.025 C 33.715 87.451,33.146 88.292,32.836 88.893 C 32.526 89.495,31.941 90.342,31.536 90.777 C 31.131 91.211,30.800 91.765,30.800 92.007 C 30.800 92.249,30.620 92.336,30.400 92.200 C 30.180 92.064,30.000 92.161,30.000 92.415 C 30.000 92.669,29.645 93.375,29.212 93.983 C 28.778 94.592,28.534 95.201,28.669 95.336 C 28.804 95.471,28.620 95.694,28.260 95.832 C 27.899 95.971,27.705 96.246,27.828 96.445 C 27.950 96.643,27.789 96.906,27.470 97.029 C 27.125 97.161,26.971 97.567,27.091 98.026 C 27.233 98.570,27.089 98.800,26.604 98.800 C 26.145 98.800,25.994 99.008,26.153 99.421 C 26.289 99.777,26.222 99.937,25.995 99.797 C 25.640 99.577,25.427 100.106,25.553 100.900 C 25.579 101.065,25.420 101.200,25.200 101.200 C 24.980 101.200,24.800 101.494,24.800 101.853 C 24.800 102.212,24.440 102.818,24.000 103.200 C 23.560 103.582,23.161 104.359,23.114 104.928 C 23.067 105.497,22.953 105.887,22.861 105.795 C 22.642 105.575,19.200 112.212,19.200 112.854 C 19.200 113.126,18.795 113.794,18.300 114.339 C 17.805 114.883,17.670 115.181,18.000 115.000 C 18.330 114.819,18.195 115.117,17.700 115.661 C 17.205 116.206,16.800 117.135,16.800 117.726 C 16.800 118.317,16.620 118.800,16.400 118.800 C 16.180 118.800,16.000 119.190,16.000 119.667 C 16.000 120.143,15.873 120.406,15.718 120.251 C 15.563 120.096,15.111 120.921,14.713 122.085 C 14.316 123.248,13.881 124.515,13.748 124.900 C 13.616 125.285,13.348 125.600,13.153 125.600 C 12.959 125.600,12.800 125.938,12.800 126.351 C 12.800 126.764,12.500 127.799,12.134 128.651 C 11.768 129.503,11.437 130.532,11.398 130.937 C 11.360 131.342,11.080 131.827,10.776 132.015 C 10.472 132.203,10.348 132.482,10.501 132.634 C 10.654 132.787,10.539 133.382,10.245 133.956 C 9.392 135.624,8.805 137.684,9.064 138.103 C 9.195 138.316,9.108 138.610,8.870 138.757 C 8.632 138.904,8.392 139.694,8.337 140.512 C 8.282 141.330,8.093 142.000,7.918 142.000 C 7.743 142.000,7.600 142.439,7.600 142.976 C 7.600 143.513,7.420 144.064,7.200 144.200 C 6.980 144.336,6.800 144.876,6.800 145.400 C 6.800 145.924,6.620 146.464,6.400 146.600 C 6.180 146.736,6.000 147.467,6.000 148.224 C 6.000 148.981,5.857 149.600,5.682 149.600 C 5.507 149.600,5.318 150.270,5.263 151.088 C 5.208 151.906,4.971 152.694,4.736 152.839 C 4.456 153.013,4.496 153.177,4.855 153.320 C 5.242 153.474,5.255 153.546,4.900 153.568 C 4.620 153.586,4.400 154.119,4.400 154.776 C 4.400 155.423,4.254 156.043,4.076 156.153 C 3.898 156.263,3.708 157.219,3.654 158.277 C 3.599 159.334,3.385 160.371,3.178 160.580 C 2.970 160.789,2.800 161.644,2.800 162.480 C 2.800 163.316,2.640 164.000,2.445 164.000 C 2.250 164.000,1.977 165.215,1.840 166.700 C 1.235 173.211,1.104 174.222,0.814 174.600 C 0.009 175.647,-0.114 223.255,0.683 224.840 C 0.949 225.368,1.267 226.970,1.390 228.400 C 1.964 235.067,2.092 236.000,2.434 236.000 C 2.635 236.000,2.803 236.945,2.806 238.100 C 2.811 239.603,2.922 240.030,3.200 239.600 C 3.475 239.174,3.590 239.659,3.594 241.276 C 3.597 242.528,3.780 243.664,4.000 243.800 C 4.220 243.936,4.400 244.742,4.400 245.590 C 4.400 246.439,4.572 247.193,4.782 247.267 C 4.993 247.340,5.210 248.075,5.264 248.900 C 5.319 249.725,5.507 250.400,5.682 250.400 C 5.857 250.400,6.000 250.940,6.000 251.600 C 6.000 252.260,6.142 252.800,6.315 252.800 C 6.488 252.800,6.674 253.382,6.728 254.093 C 6.783 254.805,7.001 255.561,7.213 255.773 C 7.426 255.986,7.600 256.664,7.600 257.280 C 7.600 257.896,7.780 258.400,8.000 258.400 C 8.220 258.400,8.400 259.041,8.400 259.824 C 8.400 260.608,8.569 261.143,8.775 261.015 C 8.986 260.885,9.070 261.223,8.967 261.792 C 8.867 262.346,8.930 262.800,9.107 262.800 C 9.285 262.800,9.474 263.385,9.528 264.100 C 9.581 264.815,9.800 265.460,10.013 265.533 C 10.226 265.607,10.400 266.013,10.400 266.435 C 10.400 266.858,10.837 268.110,11.372 269.218 C 12.195 270.926,12.718 272.522,12.902 273.893 C 12.924 274.062,13.182 274.440,13.475 274.732 C 13.768 275.025,13.905 275.430,13.780 275.632 C 13.655 275.835,13.743 276.000,13.976 276.000 C 14.209 276.000,14.400 276.435,14.400 276.967 C 14.400 277.498,14.564 277.993,14.763 278.067 C 14.963 278.140,15.188 278.560,15.263 279.000 C 15.339 279.440,15.625 280.038,15.899 280.328 C 16.174 280.618,16.515 281.338,16.658 281.928 C 16.800 282.518,17.286 283.528,17.737 284.172 C 18.237 284.886,18.331 285.208,17.979 284.995 C 17.326 284.602,18.230 285.928,19.000 286.494 C 19.235 286.667,19.153 286.793,18.800 286.800 C 18.446 286.807,18.364 286.933,18.601 287.106 C 18.821 287.268,19.265 287.940,19.586 288.600 C 19.908 289.260,20.493 290.278,20.886 290.862 C 21.279 291.446,21.600 292.171,21.600 292.473 C 21.600 292.776,21.956 293.280,22.391 293.594 C 22.973 294.013,23.052 294.246,22.691 294.476 C 22.306 294.721,22.308 294.789,22.700 294.794 C 22.975 294.797,23.200 295.036,23.200 295.325 C 23.200 295.613,23.537 296.210,23.948 296.652 C 24.359 297.093,24.935 298.117,25.228 298.927 C 25.521 299.737,25.905 300.400,26.080 300.400 C 26.256 300.400,26.381 300.535,26.357 300.700 C 26.271 301.292,26.896 302.788,27.161 302.624 C 27.309 302.533,27.678 303.030,27.981 303.729 C 28.284 304.428,28.953 305.510,29.468 306.134 C 29.984 306.757,30.285 307.477,30.139 307.734 C 29.992 307.990,30.018 308.068,30.196 307.906 C 30.613 307.529,31.571 308.780,31.587 309.724 C 31.594 310.122,31.780 310.336,32.000 310.200 C 32.220 310.064,32.400 310.233,32.400 310.576 C 32.400 310.919,32.580 311.200,32.800 311.200 C 33.020 311.200,33.200 311.571,33.200 312.024 C 33.200 312.477,33.380 312.736,33.600 312.600 C 33.820 312.464,34.000 312.567,34.000 312.829 C 34.000 313.092,34.388 313.642,34.861 314.053 C 35.370 314.495,35.509 314.800,35.200 314.800 C 34.891 314.800,35.030 315.105,35.539 315.547 C 36.012 315.958,36.400 316.408,36.400 316.547 C 36.400 316.686,36.715 317.130,37.100 317.534 C 38.102 318.585,38.943 319.885,38.758 320.100 C 38.671 320.201,39.185 320.776,39.900 321.377 C 40.615 321.979,41.200 322.736,41.200 323.059 C 41.200 323.383,41.361 323.548,41.558 323.426 C 41.887 323.222,42.254 323.742,42.329 324.521 C 42.347 324.698,42.918 325.363,43.600 326.000 C 44.282 326.637,44.831 327.257,44.820 327.379 C 44.748 328.186,44.869 328.400,45.400 328.400 C 45.730 328.400,46.000 328.557,46.000 328.750 C 46.000 328.942,46.630 329.787,47.400 330.628 C 48.170 331.469,48.800 332.312,48.800 332.502 C 48.800 332.692,48.980 332.736,49.200 332.600 C 49.560 332.378,49.773 332.903,49.647 333.700 C 49.621 333.865,49.753 333.955,49.941 333.900 C 50.129 333.845,50.917 334.556,51.694 335.481 C 52.470 336.405,53.216 337.050,53.352 336.914 C 53.489 336.778,53.600 336.977,53.600 337.357 C 53.600 337.737,53.780 337.936,54.000 337.800 C 54.220 337.664,54.400 337.742,54.400 337.973 C 54.400 338.363,55.367 339.391,57.661 341.438 C 58.177 341.899,58.865 342.664,59.188 343.138 C 59.512 343.612,60.017 344.000,60.312 344.000 C 60.606 344.000,60.736 344.180,60.600 344.400 C 60.464 344.620,60.644 344.800,61.000 344.800 C 61.356 344.800,61.536 344.980,61.400 345.200 C 61.264 345.420,61.463 345.600,61.843 345.600 C 62.223 345.600,62.434 345.699,62.313 345.820 C 62.051 346.082,66.292 350.400,66.811 350.400 C 67.008 350.400,67.874 351.112,68.736 351.982 C 69.597 352.853,70.414 353.453,70.551 353.316 C 70.688 353.179,70.800 353.367,70.800 353.733 C 70.800 354.100,71.070 354.400,71.400 354.400 C 71.730 354.400,72.000 354.584,72.000 354.810 C 72.000 355.035,72.450 355.391,73.000 355.600 C 73.550 355.809,74.000 356.175,74.000 356.414 C 74.000 356.652,74.180 356.736,74.400 356.600 C 74.620 356.464,74.800 356.644,74.800 357.000 C 74.800 357.356,74.980 357.536,75.200 357.400 C 75.420 357.264,75.600 357.348,75.600 357.586 C 75.600 357.825,76.050 358.191,76.600 358.400 C 77.150 358.609,77.600 358.965,77.600 359.190 C 77.600 359.416,77.900 359.600,78.267 359.600 C 78.633 359.600,78.822 359.711,78.686 359.848 C 78.332 360.202,79.426 361.200,80.168 361.200 C 80.512 361.200,81.018 361.560,81.293 362.000 C 81.568 362.440,81.992 362.800,82.237 362.800 C 82.481 362.800,83.248 363.342,83.941 364.003 C 84.633 364.665,85.200 364.998,85.200 364.742 C 85.200 364.487,85.536 364.665,85.947 365.139 C 86.358 365.612,86.908 366.000,87.171 366.000 C 87.433 366.000,87.536 366.180,87.400 366.400 C 87.264 366.620,87.523 366.800,87.976 366.800 C 88.429 366.800,88.800 366.980,88.800 367.200 C 88.800 367.420,89.081 367.600,89.424 367.600 C 89.767 367.600,89.936 367.780,89.800 368.000 C 89.664 368.220,89.923 368.400,90.376 368.400 C 90.829 368.400,91.200 368.580,91.200 368.800 C 91.200 369.020,91.481 369.200,91.824 369.200 C 92.167 369.200,92.336 369.380,92.200 369.600 C 92.064 369.820,92.289 370.000,92.701 370.000 C 93.112 370.000,93.836 370.360,94.308 370.800 C 94.780 371.240,95.320 371.600,95.508 371.600 C 95.696 371.600,96.243 371.967,96.725 372.416 C 97.206 372.864,97.600 373.121,97.600 372.987 C 97.600 372.852,98.061 373.105,98.625 373.548 C 99.189 373.992,100.304 374.570,101.102 374.834 C 101.901 375.097,102.914 375.648,103.353 376.057 C 103.792 376.465,104.484 376.800,104.892 376.800 C 105.300 376.800,106.020 377.160,106.492 377.600 C 106.964 378.040,107.662 378.400,108.042 378.400 C 108.422 378.400,108.793 378.535,108.867 378.700 C 109.060 379.135,115.560 382.400,116.232 382.400 C 116.545 382.400,116.800 382.580,116.800 382.800 C 116.800 383.020,117.250 383.200,117.800 383.200 C 118.350 383.200,118.800 383.360,118.800 383.556 C 118.800 383.752,119.598 384.147,120.574 384.436 C 121.550 384.724,122.260 385.104,122.151 385.280 C 122.042 385.456,122.403 385.600,122.953 385.600 C 123.503 385.600,124.064 385.780,124.200 386.000 C 124.336 386.220,124.726 386.400,125.066 386.400 C 125.407 386.400,126.791 386.919,128.143 387.553 C 129.494 388.188,131.320 388.931,132.200 389.206 C 133.080 389.480,134.017 389.876,134.282 390.087 C 134.548 390.297,134.949 390.355,135.174 390.216 C 135.399 390.077,135.992 390.190,136.492 390.467 C 137.557 391.059,137.352 390.996,139.500 391.390 C 140.435 391.562,141.200 391.859,141.200 392.051 C 141.200 392.243,141.815 392.400,142.567 392.400 C 143.318 392.400,143.993 392.572,144.067 392.782 C 144.140 392.993,144.875 393.210,145.700 393.264 C 146.525 393.319,147.200 393.507,147.200 393.682 C 147.200 393.857,147.841 394.000,148.624 394.000 C 149.407 394.000,149.957 394.145,149.847 394.323 C 149.738 394.501,150.402 394.690,151.324 394.743 C 152.246 394.797,153.060 395.011,153.133 395.220 C 153.207 395.429,153.871 395.600,154.610 395.600 C 155.348 395.600,156.064 395.780,156.200 396.000 C 156.336 396.220,157.427 396.400,158.624 396.400 C 159.821 396.400,160.800 396.563,160.800 396.761 C 160.800 396.960,161.655 397.220,162.700 397.340 C 163.745 397.459,165.680 397.752,167.000 397.991 C 168.320 398.230,170.615 398.530,172.100 398.658 C 173.585 398.786,174.800 399.025,174.800 399.189 C 174.800 399.668,180.218 399.800,199.800 399.798 C 220.226 399.796,225.288 399.665,224.968 399.149 C 224.850 398.957,225.393 398.800,226.176 398.800 C 226.959 398.800,227.600 398.665,227.600 398.501 C 227.600 398.336,203.255 373.856,173.501 344.101 C 143.746 314.345,119.671 289.994,120.001 289.987 C 120.330 289.981,119.529 289.443,118.220 288.792 C 114.302 286.845,110.000 281.497,110.000 278.572 C 110.000 278.198,109.791 277.196,109.536 276.345 C 108.807 273.910,109.964 269.290,112.128 266.000 C 112.779 265.010,127.912 249.568,145.756 231.685 C 163.600 213.801,178.154 198.993,178.097 198.777 C 178.041 198.561,163.429 183.815,145.627 166.007 C 115.217 135.589,110.800 130.952,110.800 129.452 C 110.800 129.119,110.639 128.748,110.442 128.626 C 110.031 128.372,109.562 125.743,109.510 123.400 C 109.420 119.396,111.044 115.362,114.010 112.227 C 115.756 110.381,116.866 109.660,120.710 107.877 C 121.890 107.329,128.910 107.329,130.090 107.877 C 130.591 108.109,131.900 108.726,133.000 109.248 C 134.604 110.009,141.548 116.733,168.076 143.218 L 201.153 176.239 234.276 143.186 C 272.217 105.326,269.610 107.528,276.585 107.456 C 280.026 107.420,281.010 107.623,284.224 109.030 C 286.074 109.839,288.994 112.578,290.198 114.633 C 290.788 115.639,291.382 116.351,291.518 116.215 C 292.092 115.642,398.800 222.949,398.800 224.099 C 398.800 224.705,398.935 225.200,399.100 225.200 C 400.073 225.199,400.138 175.431,399.165 174.791 C 398.991 174.676,398.809 173.364,398.761 171.876 C 398.712 170.387,398.522 169.075,398.336 168.961 C 398.151 168.846,398.000 167.784,398.000 166.600 C 398.000 165.416,397.820 164.336,397.600 164.200 C 397.380 164.064,397.200 163.254,397.200 162.400 C 397.200 161.546,397.020 160.736,396.800 160.600 C 396.580 160.464,396.400 159.474,396.400 158.400 C 396.400 157.326,396.220 156.336,396.000 156.200 C 395.780 156.064,395.600 155.243,395.600 154.376 C 395.600 153.509,395.420 152.800,395.200 152.800 C 394.980 152.800,394.800 152.296,394.800 151.680 C 394.800 151.064,394.629 150.389,394.419 150.179 C 394.210 149.970,393.992 149.111,393.936 148.271 C 393.879 147.431,393.690 146.656,393.516 146.548 C 393.342 146.441,393.200 145.823,393.200 145.176 C 393.200 144.529,393.020 144.000,392.800 144.000 C 392.580 144.000,392.400 143.561,392.400 143.024 C 392.400 142.487,392.240 141.948,392.044 141.827 C 391.706 141.618,391.214 139.405,391.170 137.900 C 391.159 137.515,390.971 137.200,390.752 137.200 C 390.532 137.200,390.456 137.032,390.583 136.828 C 390.709 136.623,390.618 136.335,390.379 136.187 C 390.141 136.040,390.046 135.658,390.168 135.339 C 390.291 135.019,390.141 134.363,389.835 133.879 C 389.529 133.396,389.158 132.419,389.010 131.710 C 388.862 131.000,388.201 129.304,387.540 127.941 C 386.880 126.578,386.315 125.134,386.285 124.732 C 386.255 124.329,386.088 124.000,385.915 124.000 C 385.742 124.000,385.600 123.676,385.600 123.280 C 385.600 122.386,384.706 120.407,384.300 120.403 C 384.135 120.401,384.000 119.950,384.000 119.400 C 384.000 118.850,383.820 118.400,383.600 118.400 C 383.380 118.400,383.200 118.040,383.200 117.600 C 383.200 117.160,383.020 116.800,382.800 116.800 C 382.580 116.800,382.400 116.455,382.400 116.033 C 382.400 115.336,380.008 110.411,379.160 109.363 C 378.966 109.123,378.925 108.808,379.070 108.663 C 379.215 108.518,379.123 108.400,378.867 108.400 C 378.610 108.400,378.400 108.080,378.400 107.688 C 378.400 107.297,378.040 106.717,377.600 106.400 C 377.160 106.083,376.800 105.447,376.800 104.987 C 376.800 104.527,376.440 103.764,376.000 103.292 C 375.560 102.820,375.193 102.201,375.184 101.917 C 375.159 101.089,372.942 97.192,372.658 97.476 C 372.516 97.617,372.400 97.433,372.400 97.067 C 372.400 96.700,372.209 96.400,371.976 96.400 C 371.743 96.400,371.655 96.235,371.780 96.032 C 371.905 95.830,371.736 95.393,371.404 95.061 C 371.072 94.729,370.800 94.286,370.800 94.078 C 370.800 93.869,370.532 93.476,370.204 93.204 C 369.877 92.932,369.687 92.583,369.783 92.428 C 369.879 92.273,369.607 91.893,369.179 91.585 C 368.750 91.276,368.400 90.693,368.400 90.288 C 368.400 89.884,368.220 89.664,368.000 89.800 C 367.780 89.936,367.600 89.767,367.600 89.424 C 367.600 89.081,367.420 88.800,367.200 88.800 C 366.980 88.800,366.800 88.429,366.800 87.976 C 366.800 87.523,366.620 87.264,366.400 87.400 C 366.180 87.536,366.000 87.367,366.000 87.024 C 366.000 86.681,365.820 86.400,365.600 86.400 C 365.380 86.400,365.200 86.083,365.200 85.696 C 365.200 85.309,364.840 84.768,364.400 84.493 C 363.960 84.218,363.599 83.770,363.598 83.497 C 363.597 83.223,363.057 82.425,362.398 81.722 C 361.739 81.019,361.200 80.245,361.200 80.004 C 361.200 79.405,359.345 77.588,359.042 77.891 C 358.909 78.024,358.800 77.754,358.800 77.289 C 358.800 76.825,358.400 76.165,357.911 75.823 C 357.422 75.480,357.171 75.200,357.353 75.200 C 357.536 75.200,357.117 74.669,356.423 74.021 C 355.728 73.373,355.170 72.742,355.182 72.620 C 355.194 72.497,354.765 71.903,354.230 71.298 C 351.958 68.736,351.201 67.781,351.200 67.476 C 351.200 67.298,351.016 67.267,350.790 67.406 C 350.565 67.545,350.406 67.511,350.437 67.330 C 350.580 66.506,350.355 66.000,349.846 66.000 C 349.541 66.000,348.974 65.514,348.585 64.921 C 347.591 63.404,346.130 62.003,345.842 62.291 C 345.709 62.424,345.600 62.223,345.600 61.843 C 345.600 61.463,345.447 61.247,345.260 61.363 C 345.073 61.478,344.686 61.135,344.400 60.600 C 344.114 60.065,343.727 59.722,343.540 59.837 C 343.353 59.953,343.200 59.779,343.200 59.451 C 343.200 59.122,342.849 58.743,342.420 58.606 C 341.992 58.470,341.530 58.008,341.394 57.580 C 341.257 57.151,340.858 56.800,340.506 56.800 C 340.155 56.800,339.955 56.711,340.064 56.603 C 340.348 56.319,334.696 50.694,333.464 50.034 C 332.894 49.729,332.522 49.327,332.637 49.140 C 332.753 48.953,332.702 48.800,332.524 48.799 C 332.346 48.799,331.570 48.259,330.800 47.600 C 330.030 46.941,329.235 46.401,329.033 46.401 C 328.832 46.400,328.778 46.289,328.914 46.152 C 329.273 45.794,328.137 44.766,327.521 44.893 C 327.235 44.952,327.049 44.762,327.110 44.470 C 327.170 44.179,327.058 44.041,326.860 44.163 C 326.663 44.285,326.165 43.938,325.755 43.392 C 325.346 42.847,324.777 42.400,324.493 42.400 C 324.208 42.400,323.871 42.130,323.745 41.800 C 323.618 41.470,323.264 41.200,322.957 41.200 C 322.651 41.200,322.400 41.020,322.400 40.800 C 322.400 40.580,322.119 40.400,321.776 40.400 C 321.433 40.400,321.235 40.265,321.334 40.100 C 321.553 39.740,320.796 39.051,319.984 38.870 C 319.663 38.799,319.340 38.574,319.267 38.370 C 319.193 38.167,318.868 38.000,318.543 38.000 C 318.218 38.000,318.047 37.847,318.163 37.660 C 318.278 37.473,317.884 37.070,317.286 36.763 C 316.689 36.456,315.909 35.889,315.553 35.503 C 315.197 35.116,314.612 34.800,314.253 34.800 C 313.894 34.800,313.600 34.620,313.600 34.400 C 313.600 34.180,313.319 34.000,312.976 34.000 C 312.633 34.000,312.464 33.820,312.600 33.600 C 312.736 33.380,312.477 33.200,312.024 33.200 C 311.571 33.200,311.200 33.020,311.200 32.800 C 311.200 32.580,310.919 32.400,310.576 32.400 C 310.207 32.400,310.069 32.212,310.238 31.938 C 310.395 31.684,310.350 31.584,310.137 31.715 C 309.654 32.014,307.494 30.640,307.863 30.270 C 308.012 30.121,307.758 30.000,307.300 30.000 C 306.842 30.000,306.407 29.858,306.333 29.686 C 306.082 29.092,303.676 27.600,302.972 27.600 C 302.584 27.600,302.384 27.483,302.527 27.339 C 302.790 27.077,301.034 25.992,300.096 25.836 C 299.819 25.790,299.378 25.538,299.116 25.276 C 298.854 25.014,298.398 24.800,298.103 24.800 C 297.808 24.800,297.180 24.440,296.708 24.000 C 296.236 23.560,295.388 23.197,294.825 23.194 C 294.016 23.189,293.927 23.106,294.400 22.800 C 294.873 22.494,294.784 22.411,293.975 22.406 C 293.412 22.403,292.602 22.085,292.175 21.700 C 291.749 21.315,290.455 20.564,289.300 20.032 C 288.145 19.499,287.200 18.914,287.200 18.732 C 287.200 18.549,286.928 18.400,286.596 18.400 C 286.263 18.400,285.228 18.058,284.296 17.641 C 283.363 17.223,282.015 16.639,281.300 16.343 C 280.585 16.047,280.000 15.669,280.000 15.502 C 280.000 15.336,279.865 15.221,279.700 15.247 C 278.881 15.377,277.975 15.164,278.149 14.883 C 278.256 14.709,277.986 14.539,277.549 14.506 C 276.477 14.425,274.400 13.484,274.400 13.079 C 274.400 12.899,274.252 12.844,274.071 12.956 C 273.891 13.068,273.306 12.933,272.771 12.657 C 272.237 12.382,270.945 11.917,269.900 11.626 C 268.855 11.335,268.000 10.955,268.000 10.783 C 268.000 10.611,267.545 10.520,266.990 10.581 C 266.386 10.648,265.835 10.434,265.620 10.049 C 265.422 9.696,265.134 9.533,264.979 9.687 C 264.825 9.842,264.193 9.707,263.575 9.387 C 262.956 9.067,262.187 8.907,261.866 9.030 C 261.544 9.154,261.162 9.062,261.017 8.827 C 260.872 8.592,260.213 8.400,259.553 8.400 C 258.855 8.400,258.456 8.233,258.600 8.000 C 258.746 7.764,258.297 7.600,257.504 7.600 C 256.765 7.600,255.986 7.426,255.773 7.213 C 255.561 7.001,254.805 6.783,254.093 6.728 C 253.382 6.674,252.800 6.488,252.800 6.315 C 252.800 6.142,252.260 6.000,251.600 6.000 C 250.940 6.000,250.400 5.820,250.400 5.600 C 250.400 5.380,249.680 5.200,248.800 5.200 C 247.920 5.200,247.200 5.020,247.200 4.800 C 247.200 4.580,246.491 4.400,245.624 4.400 C 244.757 4.400,243.936 4.220,243.800 4.000 C 243.664 3.780,242.753 3.600,241.776 3.600 C 240.799 3.600,240.000 3.454,240.000 3.275 C 240.000 3.096,239.149 2.905,238.109 2.852 C 237.069 2.798,236.124 2.617,236.009 2.449 C 235.894 2.282,234.814 2.097,233.609 2.038 C 232.404 1.979,231.111 1.767,230.736 1.566 C 230.360 1.364,228.997 1.200,227.706 1.200 C 226.363 1.200,225.146 0.986,224.860 0.700 C 224.367 0.207,182.064 -0.331,181.584 0.150 M292.893 123.200 C 292.893 123.970,292.975 124.285,293.076 123.900 C 293.176 123.515,293.176 122.885,293.076 122.500 C 292.975 122.115,292.893 122.430,292.893 123.200 M286.175 136.500 L 285.000 137.800 286.300 136.625 C 287.015 135.979,287.600 135.394,287.600 135.325 C 287.600 135.016,287.270 135.288,286.175 136.500 M269.775 152.900 L 268.600 154.200 269.900 153.025 C 270.615 152.379,271.200 151.794,271.200 151.725 C 271.200 151.416,270.870 151.688,269.775 152.900 M252.575 170.100 L 251.400 171.400 252.700 170.225 C 253.415 169.579,254.000 168.994,254.000 168.925 C 254.000 168.616,253.670 168.888,252.575 170.100 M236.175 186.500 L 235.000 187.800 236.300 186.625 C 237.015 185.979,237.600 185.394,237.600 185.325 C 237.600 185.016,237.270 185.288,236.175 186.500 M223.846 198.726 C 223.735 198.906,226.739 202.101,230.522 205.826 L 237.400 212.600 230.685 205.781 C 226.993 202.031,224.098 198.836,224.252 198.681 C 224.407 198.527,224.424 198.400,224.290 198.400 C 224.157 198.400,223.956 198.547,223.846 198.726 M246.600 222.000 C 251.656 227.060,255.883 231.200,255.993 231.200 C 256.103 231.200,252.056 227.060,247.000 222.000 C 241.944 216.940,237.717 212.800,237.607 212.800 C 237.497 212.800,241.544 216.940,246.600 222.000 M398.006 229.876 C 398.011 231.007,398.112 231.245,398.400 230.800 C 398.906 230.018,398.906 228.912,398.400 228.600 C 398.160 228.452,398.002 228.961,398.006 229.876 M262.200 237.600 C 265.494 240.900,268.280 243.600,268.390 243.600 C 268.500 243.600,265.894 240.900,262.600 237.600 C 259.306 234.300,256.520 231.600,256.410 231.600 C 256.300 231.600,258.906 234.300,262.200 237.600 M215.800 236.400 C 217.771 238.380,219.473 240.000,219.583 240.000 C 219.693 240.000,218.171 238.380,216.200 236.400 C 214.229 234.420,212.527 232.800,212.417 232.800 C 212.307 232.800,213.829 234.420,215.800 236.400 M186.175 236.500 L 185.000 237.800 186.300 236.625 C 187.512 235.530,187.784 235.200,187.475 235.200 C 187.406 235.200,186.821 235.785,186.175 236.500 M395.600 242.957 C 395.600 243.557,395.764 243.946,395.964 243.822 C 396.366 243.574,396.315 242.582,395.878 242.145 C 395.725 241.992,395.600 242.357,395.600 242.957 M277.800 253.200 C 282.856 258.260,287.083 262.400,287.193 262.400 C 287.303 262.400,283.256 258.260,278.200 253.200 C 273.144 248.140,268.917 244.000,268.807 244.000 C 268.697 244.000,272.744 248.140,277.800 253.200 M232.200 252.800 C 234.171 254.780,235.873 256.400,235.983 256.400 C 236.093 256.400,234.571 254.780,232.600 252.800 C 230.629 250.820,228.927 249.200,228.817 249.200 C 228.707 249.200,230.229 250.820,232.200 252.800 M169.775 252.900 L 168.600 254.200 169.900 253.025 C 171.112 251.930,171.384 251.600,171.075 251.600 C 171.006 251.600,170.421 252.185,169.775 252.900 M393.228 252.700 C 393.253 253.675,393.295 253.709,393.600 253.000 C 394.069 251.907,394.069 251.600,393.600 251.600 C 393.380 251.600,393.213 252.095,393.228 252.700 M392.667 254.267 C 392.276 254.657,392.341 256.000,392.750 256.000 C 392.943 256.000,393.100 255.550,393.100 255.000 C 393.100 253.918,393.069 253.865,392.667 254.267 M390.800 260.600 C 390.800 260.930,390.980 261.200,391.200 261.200 C 391.420 261.200,391.600 260.930,391.600 260.600 C 391.600 260.270,391.420 260.000,391.200 260.000 C 390.980 260.000,390.800 260.270,390.800 260.600 M249.000 269.600 C 250.750 271.360,252.271 272.800,252.381 272.800 C 252.491 272.800,251.150 271.360,249.400 269.600 C 247.650 267.840,246.129 266.400,246.019 266.400 C 245.909 266.400,247.250 267.840,249.000 269.600 M152.575 270.100 L 151.400 271.400 152.700 270.225 C 153.912 269.130,154.184 268.800,153.875 268.800 C 153.806 268.800,153.221 269.385,152.575 270.100 M292.682 274.021 C 292.808 274.999,292.975 275.875,293.055 275.967 C 293.381 276.342,293.160 273.355,292.821 272.821 C 292.584 272.446,292.535 272.870,292.682 274.021 M264.200 284.800 C 265.283 285.900,266.260 286.800,266.370 286.800 C 266.480 286.800,265.683 285.900,264.600 284.800 C 263.517 283.700,262.540 282.800,262.430 282.800 C 262.320 282.800,263.117 283.700,264.200 284.800 M122.400 290.382 C 122.730 290.605,123.345 290.791,123.767 290.794 C 124.790 290.802,124.471 290.573,123.000 290.244 C 122.124 290.048,121.962 290.085,122.400 290.382 M127.200 290.400 C 126.376 290.664,126.341 290.726,127.000 290.754 C 127.440 290.773,128.070 290.613,128.400 290.400 C 129.101 289.947,128.614 289.947,127.200 290.400 M376.000 295.600 C 376.000 296.040,375.809 296.400,375.576 296.400 C 375.343 296.400,375.271 296.591,375.415 296.824 C 375.580 297.092,375.879 296.981,376.226 296.524 C 376.875 295.667,376.963 294.800,376.400 294.800 C 376.180 294.800,376.000 295.160,376.000 295.600 M290.100 378.944 C 289.605 379.189,289.200 379.533,289.200 379.709 C 289.200 380.094,290.655 379.359,291.001 378.798 C 291.137 378.579,291.192 378.422,291.124 378.449 C 291.056 378.476,290.595 378.699,290.100 378.944 M238.000 396.758 C 238.000 396.954,238.450 397.089,239.000 397.058 C 240.303 396.982,240.303 396.400,239.000 396.400 C 238.450 396.400,238.000 396.561,238.000 396.758 M229.000 398.400 C 229.136 398.620,229.586 398.800,230.000 398.800 C 230.414 398.800,230.864 398.620,231.000 398.400 C 231.145 398.166,230.730 398.000,230.000 398.000 C 229.270 398.000,228.855 398.166,229.000 398.400 " stroke="none" fill="#e31b1b" fill-rule="evenodd"></path><path id="path2" d="M291.600 116.901 C 291.600 117.505,291.757 118.000,291.948 118.000 C 293.086 118.000,293.085 127.929,291.947 128.633 C 291.756 128.751,291.600 129.119,291.600 129.452 C 291.600 130.989,286.918 135.907,256.468 166.354 L 223.911 198.909 256.504 231.554 C 286.816 261.915,291.600 266.957,291.600 268.548 C 291.600 268.881,291.761 269.252,291.958 269.374 C 292.709 269.838,293.117 274.962,292.613 277.600 C 291.488 283.484,285.430 290.000,281.084 290.000 C 280.576 290.000,279.964 290.196,279.724 290.436 C 279.277 290.883,275.300 290.748,273.000 290.208 C 268.747 289.210,268.871 289.324,234.466 254.927 C 216.352 236.817,201.373 222.000,201.179 222.000 C 200.986 222.000,186.011 236.805,167.901 254.900 C 134.144 288.631,133.828 288.922,129.649 290.124 C 128.024 290.591,123.432 290.635,121.000 290.207 C 119.501 289.943,122.830 293.366,173.600 344.297 C 219.333 390.175,230.895 401.466,229.000 398.400 C 228.845 398.149,229.703 398.000,231.296 398.000 C 232.789 398.000,234.045 397.795,234.337 397.503 C 234.732 397.108,234.910 397.128,235.211 397.603 C 235.462 398.002,235.590 398.034,235.594 397.700 C 235.597 397.412,236.110 397.200,236.800 397.200 C 237.460 397.200,238.000 397.020,238.000 396.800 C 238.000 396.577,239.075 396.400,240.424 396.400 C 241.937 396.400,242.754 396.250,242.600 396.000 C 242.395 395.668,244.848 395.355,246.100 395.553 C 246.265 395.579,246.403 395.375,246.406 395.100 C 246.410 394.767,246.542 394.800,246.800 395.200 C 247.058 395.600,247.190 395.633,247.194 395.300 C 247.197 395.005,247.733 394.797,248.500 394.794 C 249.486 394.789,249.655 394.694,249.200 394.400 C 248.766 394.120,249.126 394.011,250.500 394.006 C 251.635 394.002,252.400 393.819,252.400 393.551 C 252.400 393.258,252.636 393.293,253.077 393.651 C 253.537 394.024,253.657 394.040,253.453 393.700 C 253.235 393.337,253.544 393.200,254.576 393.200 C 255.359 393.200,256.000 393.020,256.000 392.800 C 256.000 392.580,256.372 392.400,256.826 392.400 C 257.281 392.400,258.040 392.193,258.514 391.939 C 258.987 391.686,259.830 391.444,260.387 391.402 C 260.944 391.360,261.715 391.297,262.100 391.263 C 262.485 391.228,262.800 390.946,262.800 390.635 C 262.800 390.227,263.146 390.124,264.043 390.266 C 264.751 390.377,265.187 390.302,265.056 390.091 C 264.931 389.888,265.386 389.705,266.069 389.686 C 266.751 389.666,267.501 389.459,267.735 389.225 C 267.969 388.991,268.574 388.800,269.080 388.800 C 269.586 388.800,270.000 388.620,270.000 388.400 C 270.000 388.180,270.270 388.000,270.600 388.000 C 270.930 388.000,271.200 387.820,271.200 387.600 C 271.200 387.380,271.391 387.200,271.624 387.200 C 271.857 387.200,271.936 387.380,271.800 387.600 C 271.664 387.820,271.724 388.000,271.934 388.000 C 272.143 388.000,272.422 387.719,272.554 387.375 C 272.686 387.031,272.976 386.861,273.197 386.998 C 273.419 387.135,273.600 387.057,273.600 386.824 C 273.600 386.591,273.735 386.421,273.900 386.447 C 275.095 386.636,276.153 386.357,275.600 386.000 C 275.115 385.686,275.172 385.611,275.900 385.606 C 276.395 385.603,276.803 385.375,276.806 385.100 C 276.810 384.766,276.938 384.798,277.189 385.197 C 277.490 385.672,277.668 385.692,278.063 385.297 C 278.337 385.023,278.884 384.800,279.280 384.800 C 279.676 384.800,280.000 384.620,280.000 384.400 C 280.000 384.180,280.360 384.000,280.800 384.000 C 281.240 384.000,281.600 383.820,281.600 383.600 C 281.600 383.380,281.878 383.200,282.217 383.200 C 282.556 383.200,283.220 382.840,283.692 382.400 C 284.198 381.928,285.136 381.588,285.975 381.572 C 287.136 381.549,287.252 381.480,286.600 381.200 C 285.793 380.853,286.820 380.584,288.270 380.763 C 288.528 380.795,288.843 380.501,288.969 380.111 C 289.095 379.720,289.649 379.192,290.200 378.937 C 290.750 378.683,291.100 378.638,290.977 378.837 C 290.854 379.037,290.943 379.200,291.176 379.200 C 291.409 379.200,291.601 379.065,291.603 378.900 C 291.607 378.531,293.532 377.610,294.380 377.572 C 294.820 377.552,294.767 377.444,294.200 377.200 C 293.491 376.895,293.525 376.853,294.500 376.828 C 295.105 376.813,295.600 376.620,295.600 376.400 C 295.600 376.180,295.881 376.000,296.224 376.000 C 296.567 376.000,296.750 375.843,296.632 375.652 C 296.513 375.460,297.150 375.205,298.048 375.084 C 298.945 374.964,300.078 374.491,300.565 374.033 C 301.053 373.575,301.800 373.197,302.226 373.194 C 302.872 373.189,302.901 373.124,302.400 372.800 C 301.915 372.486,301.972 372.411,302.700 372.406 C 303.195 372.403,303.600 372.220,303.600 372.000 C 303.600 371.780,303.735 371.621,303.900 371.647 C 304.697 371.773,305.222 371.560,305.000 371.200 C 304.766 370.821,304.938 370.733,306.100 370.640 C 306.578 370.602,307.481 369.977,308.616 368.900 C 308.906 368.625,309.386 368.400,309.683 368.400 C 309.980 368.400,310.483 368.040,310.800 367.600 C 311.117 367.160,311.697 366.800,312.088 366.800 C 312.480 366.800,312.755 366.665,312.700 366.500 C 312.645 366.335,312.749 366.167,312.930 366.126 C 313.112 366.086,313.583 365.681,313.977 365.226 C 314.371 364.772,314.916 364.400,315.186 364.400 C 315.457 364.400,316.201 363.841,316.840 363.158 C 317.478 362.474,318.000 362.116,318.000 362.361 C 318.000 362.606,318.567 362.265,319.259 361.603 C 319.952 360.942,320.685 360.400,320.888 360.400 C 321.364 360.400,322.564 359.210,322.129 359.170 C 321.948 359.153,322.430 358.907,323.200 358.624 C 324.068 358.305,324.579 357.862,324.545 357.459 C 324.515 357.101,324.635 356.898,324.813 357.008 C 324.990 357.118,325.383 356.981,325.685 356.704 C 325.987 356.427,326.586 355.992,327.017 355.737 C 327.448 355.483,327.755 355.078,327.700 354.837 C 327.645 354.597,327.825 354.445,328.100 354.500 C 328.375 354.555,328.555 354.375,328.500 354.100 C 328.445 353.825,328.643 353.600,328.941 353.600 C 329.238 353.600,330.046 353.060,330.737 352.400 C 331.428 351.740,332.135 351.200,332.308 351.200 C 332.481 351.200,332.883 350.840,333.200 350.400 C 333.517 349.960,334.017 349.600,334.312 349.600 C 334.606 349.600,334.736 349.420,334.600 349.200 C 334.464 348.980,334.551 348.800,334.794 348.800 C 335.036 348.800,336.672 347.315,338.428 345.500 C 342.388 341.410,341.755 342.042,344.691 339.239 C 346.186 337.812,346.986 336.781,346.691 336.662 C 346.421 336.553,346.605 336.449,347.100 336.432 C 347.905 336.403,348.190 336.003,348.047 335.100 C 348.021 334.935,348.283 334.800,348.629 334.800 C 349.347 334.800,350.400 333.866,350.400 333.229 C 350.400 332.993,350.580 332.800,350.800 332.800 C 351.020 332.800,351.200 332.606,351.200 332.369 C 351.200 332.131,351.912 331.253,352.782 330.417 C 353.652 329.581,354.252 328.785,354.115 328.649 C 353.979 328.512,354.186 328.400,354.576 328.400 C 355.036 328.400,355.206 328.193,355.060 327.813 C 354.936 327.490,355.035 327.102,355.279 326.951 C 355.567 326.773,355.610 326.861,355.400 327.200 C 355.186 327.546,355.233 327.627,355.538 327.438 C 355.792 327.281,356.000 326.971,356.000 326.748 C 356.000 326.525,356.225 326.115,356.500 325.837 C 356.775 325.559,357.360 324.830,357.800 324.216 C 358.240 323.602,359.013 322.672,359.518 322.150 C 360.023 321.627,360.238 321.200,359.995 321.200 C 359.752 321.200,359.659 321.028,359.789 320.817 C 359.919 320.607,360.290 320.536,360.613 320.660 C 361.001 320.809,361.200 320.630,361.200 320.131 C 361.200 319.716,361.560 319.117,362.000 318.800 C 362.440 318.483,362.800 317.969,362.800 317.659 C 362.800 317.348,363.172 316.771,363.626 316.377 C 364.081 315.983,364.486 315.512,364.526 315.330 C 364.567 315.149,364.748 315.049,364.930 315.110 C 365.111 315.170,365.153 315.047,365.022 314.836 C 364.892 314.624,365.238 313.998,365.792 313.444 C 366.347 312.890,366.800 312.038,366.800 311.552 C 366.800 311.065,366.911 310.778,367.048 310.914 C 367.350 311.217,368.400 310.222,368.400 309.633 C 368.400 309.237,369.137 308.210,370.300 306.984 C 370.575 306.694,370.800 306.233,370.800 305.960 C 370.800 305.687,371.115 305.103,371.500 304.663 C 371.885 304.223,371.977 303.993,371.705 304.152 C 371.367 304.349,371.287 304.239,371.454 303.804 C 371.589 303.453,371.788 303.255,371.897 303.364 C 372.199 303.665,373.200 302.533,373.200 301.891 C 373.200 301.579,373.556 301.001,373.992 300.607 C 374.692 299.974,375.502 297.518,375.281 296.700 C 375.236 296.535,375.380 296.400,375.600 296.400 C 375.820 296.400,376.000 296.040,376.000 295.600 C 376.000 295.067,376.267 294.800,376.800 294.800 C 377.426 294.800,377.600 294.533,377.600 293.576 C 377.600 292.863,377.767 292.456,378.000 292.600 C 378.227 292.740,378.400 292.404,378.400 291.824 C 378.400 291.261,378.536 290.800,378.702 290.800 C 378.869 290.800,379.244 290.259,379.537 289.598 C 379.830 288.936,380.234 288.497,380.435 288.621 C 380.636 288.746,380.800 288.196,380.800 287.400 C 380.800 286.604,380.960 286.051,381.155 286.172 C 381.476 286.370,381.848 285.614,382.219 284.007 C 382.295 283.681,382.546 283.351,382.778 283.274 C 383.010 283.197,383.200 282.674,383.200 282.114 C 383.200 281.553,383.588 280.758,384.061 280.347 C 384.570 279.905,384.709 279.600,384.400 279.600 C 384.103 279.600,384.276 279.254,384.800 278.800 C 385.307 278.360,385.515 278.000,385.261 278.000 C 385.008 278.000,384.800 277.730,384.800 277.400 C 384.800 277.070,384.980 276.800,385.200 276.800 C 385.420 276.800,385.603 276.395,385.606 275.900 C 385.611 275.172,385.686 275.115,386.000 275.600 C 386.295 276.057,386.389 275.895,386.394 274.924 C 386.397 274.222,386.580 273.536,386.800 273.400 C 387.020 273.264,387.203 272.758,387.206 272.276 C 387.211 271.546,387.284 271.500,387.641 272.000 C 387.985 272.481,388.030 272.420,387.870 271.693 C 387.758 271.183,387.930 270.527,388.262 270.195 C 388.587 269.870,388.869 269.069,388.887 268.416 C 388.906 267.762,389.074 267.322,389.260 267.437 C 389.447 267.553,389.600 267.197,389.600 266.647 C 389.600 266.097,389.796 265.526,390.035 265.378 C 390.274 265.231,390.391 264.810,390.295 264.443 C 390.199 264.076,390.380 263.535,390.696 263.239 C 391.091 262.870,391.192 262.281,391.017 261.351 C 390.878 260.608,390.916 260.000,391.102 260.000 C 391.616 260.000,392.400 257.523,392.400 255.895 C 392.400 255.099,392.580 254.336,392.800 254.200 C 393.020 254.064,393.200 253.423,393.200 252.776 C 393.200 252.129,393.380 251.600,393.600 251.600 C 393.820 251.600,394.000 251.229,394.000 250.776 C 394.000 250.295,394.177 250.062,394.427 250.217 C 394.661 250.362,394.820 250.237,394.779 249.940 C 394.569 248.405,394.842 245.978,395.200 246.200 C 395.449 246.354,395.600 245.596,395.600 244.200 C 395.600 242.804,395.751 242.046,396.000 242.200 C 396.233 242.344,396.400 241.937,396.400 241.224 C 396.400 240.551,396.602 240.000,396.849 240.000 C 397.172 240.000,397.166 239.841,396.830 239.436 C 396.509 239.050,396.494 238.789,396.781 238.612 C 397.011 238.469,397.200 237.748,397.200 237.010 C 397.200 236.271,397.425 235.576,397.700 235.465 C 398.100 235.304,398.100 235.257,397.700 235.232 C 397.425 235.214,397.200 235.009,397.200 234.776 C 397.200 234.543,397.380 234.464,397.600 234.600 C 397.854 234.757,398.000 233.663,398.000 231.600 C 398.000 229.537,398.146 228.443,398.400 228.600 C 398.653 228.756,398.800 227.771,398.800 225.923 L 398.800 222.999 345.200 169.400 C 299.468 123.668,291.600 115.962,291.600 116.901 M49.200 332.583 C 49.200 332.743,49.560 333.331,50.000 333.891 C 50.440 334.450,50.800 334.777,50.800 334.617 C 50.800 334.457,50.440 333.869,50.000 333.309 C 49.560 332.750,49.200 332.423,49.200 332.583 " stroke="none" fill="#c40404" fill-rule="evenodd"></path><path id="path3" d="M123.891 107.889 C 124.601 107.977,125.861 107.979,126.691 107.892 C 127.521 107.805,126.940 107.733,125.400 107.731 C 123.860 107.729,123.181 107.800,123.891 107.889 M275.491 107.889 C 276.201 107.977,277.461 107.979,278.291 107.892 C 279.121 107.805,278.540 107.733,277.000 107.731 C 275.460 107.729,274.781 107.800,275.491 107.889 M119.954 108.552 C 117.073 109.581,113.240 112.816,111.958 115.300 C 110.891 117.368,111.297 117.188,112.559 115.034 C 114.175 112.276,116.904 110.200,121.200 108.459 C 122.655 107.870,121.655 107.944,119.954 108.552 M128.800 108.181 C 128.800 108.281,129.385 108.531,130.100 108.738 C 130.815 108.944,131.760 109.226,132.200 109.363 C 132.640 109.501,132.280 109.255,131.400 108.817 C 129.869 108.055,128.800 107.794,128.800 108.181 M271.800 108.400 C 271.296 108.617,271.222 108.744,271.600 108.744 C 271.930 108.744,272.560 108.589,273.000 108.400 C 273.504 108.183,273.578 108.056,273.200 108.056 C 272.870 108.056,272.240 108.211,271.800 108.400 M281.200 108.447 C 284.864 110.098,286.000 110.800,287.600 112.400 C 289.200 114.000,289.902 115.136,291.553 118.800 L 292.004 119.800 291.776 118.800 C 290.738 114.249,285.793 109.307,281.200 108.230 L 280.200 107.996 281.200 108.447 M266.521 111.562 C 265.244 112.642,250.070 127.672,232.801 144.962 C 215.531 162.253,201.287 176.400,201.147 176.400 C 201.007 176.400,186.427 161.955,168.746 144.300 C 151.066 126.645,136.060 111.757,135.400 111.215 C 134.740 110.674,149.140 125.209,167.399 143.515 C 185.659 161.822,200.806 176.800,201.059 176.800 C 201.313 176.800,216.163 162.173,234.060 144.296 C 251.957 126.419,267.230 111.301,268.000 110.700 C 268.770 110.100,269.274 109.607,269.121 109.604 C 268.967 109.602,267.797 110.483,266.521 111.562 M110.144 123.200 C 110.144 125.290,110.212 126.145,110.294 125.100 C 110.376 124.055,110.376 122.345,110.294 121.300 C 110.212 120.255,110.144 121.110,110.144 123.200 M292.134 123.200 C 292.134 124.850,292.205 125.525,292.291 124.700 C 292.378 123.875,292.378 122.525,292.291 121.700 C 292.205 120.875,292.134 121.550,292.134 123.200 M291.401 127.700 C 290.437 131.128,289.278 132.375,256.326 165.406 C 238.107 183.669,223.200 198.789,223.200 199.006 C 223.200 199.224,238.178 214.341,256.484 232.601 C 274.790 250.860,289.685 265.670,289.584 265.512 C 289.483 265.354,274.595 250.405,256.500 232.292 C 238.405 214.180,223.600 199.191,223.600 198.983 C 223.600 198.776,238.429 183.755,256.553 165.603 C 288.585 133.522,291.076 130.854,291.760 127.900 C 292.065 126.584,291.762 126.415,291.401 127.700 M110.676 128.200 C 111.213 130.727,115.188 135.629,120.243 140.000 C 120.880 140.550,119.404 138.929,116.965 136.398 C 114.526 133.866,112.255 131.166,111.919 130.398 C 110.326 126.750,110.394 126.871,110.676 128.200 M128.830 148.644 C 130.629 150.582,136.515 156.398,137.160 156.875 C 137.512 157.136,135.643 155.155,133.006 152.475 C 130.370 149.794,128.133 147.600,128.037 147.600 C 127.940 147.600,128.297 148.070,128.830 148.644 M145.230 165.041 C 147.172 167.124,152.847 172.739,153.514 173.237 C 153.891 173.519,152.043 171.555,149.406 168.875 C 146.770 166.194,144.533 164.000,144.437 164.000 C 144.340 164.000,144.697 164.468,145.230 165.041 M161.950 181.740 C 162.700 182.643,169.035 188.934,170.256 189.987 C 170.885 190.531,169.243 188.776,166.606 186.087 C 162.356 181.754,160.605 180.119,161.950 181.740 M178.371 198.126 C 178.896 198.795,176.334 201.464,145.918 231.926 C 114.185 263.708,111.367 266.716,110.626 269.600 C 110.485 270.150,110.957 269.430,111.675 268.000 C 112.845 265.669,116.405 261.972,146.090 232.258 C 164.300 214.029,179.200 198.976,179.200 198.807 C 179.200 198.637,178.885 198.251,178.500 197.949 C 177.860 197.447,177.849 197.462,178.371 198.126 M167.586 254.202 C 149.208 272.571,134.265 287.600,134.380 287.600 C 134.495 287.600,149.574 272.618,167.890 254.307 L 201.192 221.015 203.896 223.607 L 206.600 226.200 204.012 223.500 C 202.588 222.015,201.328 220.801,201.212 220.802 C 201.095 220.803,185.964 235.833,167.586 254.202 M215.800 235.600 C 219.535 239.340,222.681 242.400,222.791 242.400 C 222.901 242.400,219.935 239.340,216.200 235.600 C 212.465 231.860,209.319 228.800,209.209 228.800 C 209.099 228.800,212.065 231.860,215.800 235.600 M233.000 252.800 C 236.735 256.540,239.881 259.600,239.991 259.600 C 240.101 259.600,237.135 256.540,233.400 252.800 C 229.665 249.060,226.519 246.000,226.409 246.000 C 226.299 246.000,229.265 249.060,233.000 252.800 M249.400 269.200 C 253.135 272.940,256.281 276.000,256.391 276.000 C 256.501 276.000,253.535 272.940,249.800 269.200 C 246.065 265.460,242.919 262.400,242.809 262.400 C 242.699 262.400,245.665 265.460,249.400 269.200 M289.609 266.100 C 289.614 266.155,290.164 267.280,290.831 268.600 C 291.497 269.920,291.920 270.550,291.770 270.000 C 291.309 268.310,289.517 265.077,289.609 266.100 M109.939 272.700 C 109.862 273.745,109.907 275.500,110.037 276.600 C 110.221 278.150,110.288 277.722,110.337 274.700 C 110.403 270.606,110.175 269.461,109.939 272.700 M292.137 274.600 C 292.139 276.360,292.209 277.030,292.293 276.089 C 292.378 275.149,292.377 273.709,292.291 272.889 C 292.205 272.070,292.136 272.840,292.137 274.600 M263.200 282.935 C 265.510 285.310,267.760 287.444,268.200 287.676 C 268.640 287.908,268.820 287.936,268.600 287.738 C 268.380 287.540,266.130 285.407,263.600 282.997 L 259.000 278.616 263.200 282.935 M113.277 284.371 C 113.817 285.125,114.875 286.181,115.629 286.717 L 117.000 287.693 115.800 286.654 C 115.140 286.083,114.082 285.028,113.448 284.308 L 112.297 283.000 113.277 284.371 M287.619 285.419 C 286.640 286.416,284.750 287.760,283.419 288.406 C 280.864 289.646,280.641 290.012,283.056 289.002 C 284.980 288.198,288.157 285.831,288.964 284.599 C 289.875 283.209,289.663 283.338,287.619 285.419 M269.824 288.587 C 270.251 288.910,270.870 289.179,271.200 289.185 C 271.530 289.190,271.284 288.926,270.654 288.598 C 269.195 287.837,268.825 287.832,269.824 288.587 M272.400 289.527 C 273.311 290.082,277.175 290.369,279.200 290.032 C 280.673 289.787,280.346 289.732,277.400 289.726 C 275.420 289.723,273.350 289.594,272.800 289.441 C 272.121 289.251,271.993 289.279,272.400 289.527 M123.400 290.047 C 124.500 290.221,126.300 290.221,127.400 290.047 C 129.091 289.779,128.781 289.730,125.400 289.731 C 122.019 289.731,121.709 289.780,123.400 290.047 " stroke="none" fill="#e99494" fill-rule="evenodd"></path><path id="path4" d="M124.705 107.483 C 125.202 107.579,125.922 107.575,126.305 107.475 C 126.687 107.375,126.280 107.296,125.400 107.301 C 124.520 107.305,124.207 107.387,124.705 107.483 M276.305 107.483 C 276.802 107.579,277.522 107.575,277.905 107.475 C 278.287 107.375,277.880 107.296,277.000 107.301 C 276.120 107.305,275.807 107.387,276.305 107.483 M120.590 108.016 C 120.421 108.289,120.723 108.338,121.466 108.160 C 122.999 107.792,123.144 107.600,121.890 107.600 C 121.317 107.600,120.732 107.787,120.590 108.016 M128.000 107.755 C 128.000 107.840,128.530 107.987,129.179 108.082 C 129.827 108.177,130.267 108.108,130.155 107.928 C 129.957 107.607,128.000 107.450,128.000 107.755 M272.000 108.006 C 271.578 108.282,271.815 108.323,272.800 108.142 C 274.525 107.825,274.851 107.598,273.567 107.606 C 273.035 107.609,272.330 107.789,272.000 108.006 M279.633 107.744 C 279.725 107.823,280.340 108.008,281.000 108.156 C 281.876 108.352,282.038 108.315,281.600 108.018 C 281.060 107.653,279.232 107.398,279.633 107.744 M114.711 111.654 C 112.979 113.347,112.820 113.564,114.200 112.353 C 115.300 111.388,116.650 110.293,117.200 109.920 C 117.750 109.547,117.980 109.233,117.711 109.221 C 117.441 109.209,116.091 110.304,114.711 111.654 M134.573 110.600 C 136.396 111.991,137.339 112.468,136.329 111.487 C 135.561 110.742,133.322 109.200,133.008 109.200 C 132.860 109.200,133.564 109.830,134.573 110.600 M286.106 110.591 C 287.108 111.355,288.408 112.570,288.996 113.291 C 289.584 114.011,289.872 114.211,289.637 113.735 C 289.165 112.780,285.227 109.200,284.649 109.200 C 284.449 109.200,285.104 109.826,286.106 110.591 M255.396 122.100 L 247.400 130.200 255.500 122.204 C 263.026 114.774,263.781 114.000,263.496 114.000 C 263.439 114.000,259.794 117.645,255.396 122.100 M111.381 115.637 C 111.029 116.318,110.812 116.945,110.899 117.032 C 110.986 117.119,111.356 116.562,111.722 115.795 C 112.544 114.070,112.259 113.938,111.381 115.637 M110.267 117.867 C 110.120 118.013,110.011 118.508,110.025 118.967 C 110.049 119.733,110.082 119.723,110.434 118.842 C 110.826 117.863,110.744 117.389,110.267 117.867 M291.844 119.000 C 292.173 120.471,292.402 120.790,292.394 119.767 C 292.391 119.345,292.205 118.730,291.982 118.400 C 291.685 117.962,291.648 118.124,291.844 119.000 M143.600 118.991 C 143.600 119.232,148.417 124.007,149.436 124.776 C 149.856 125.093,148.764 123.878,147.009 122.076 C 143.874 118.856,143.600 118.609,143.600 118.991 M109.439 122.097 C 109.259 122.921,109.259 124.091,109.438 124.697 L 109.764 125.800 109.907 124.500 C 109.986 123.785,109.987 122.615,109.909 121.900 L 109.767 120.600 109.439 122.097 M292.509 123.200 C 292.509 124.190,292.587 124.595,292.682 124.100 C 292.778 123.605,292.778 122.795,292.682 122.300 C 292.587 121.805,292.509 122.210,292.509 123.200 M292.046 126.467 C 292.021 126.834,291.896 127.464,291.770 127.867 C 291.552 128.562,291.563 128.563,291.997 127.887 C 292.248 127.496,292.373 126.866,292.273 126.487 C 292.111 125.868,292.088 125.866,292.046 126.467 M110.028 127.476 C 110.013 127.958,110.180 128.464,110.400 128.600 C 110.873 128.892,110.873 128.501,110.400 127.400 C 110.069 126.629,110.055 126.631,110.028 127.476 M238.596 138.900 L 231.000 146.600 238.700 139.004 C 242.935 134.826,246.400 131.361,246.400 131.304 C 246.400 131.019,245.654 131.746,238.596 138.900 M113.201 133.400 C 113.751 134.060,114.245 134.675,114.300 134.767 C 114.355 134.858,114.488 134.845,114.596 134.738 C 114.704 134.630,114.209 134.015,113.497 133.371 L 112.203 132.200 113.201 133.400 M256.199 166.100 L 223.400 199.000 256.300 166.201 C 274.395 148.161,289.200 133.356,289.200 133.301 C 289.200 133.021,286.690 135.515,256.199 166.100 M115.926 136.312 C 116.516 136.924,117.076 137.374,117.168 137.311 C 117.399 137.155,115.535 135.200,115.156 135.200 C 114.988 135.200,115.335 135.701,115.926 136.312 M160.451 135.885 C 161.267 136.904,165.738 141.312,166.628 141.976 C 167.053 142.292,165.784 140.897,163.808 138.876 C 160.430 135.419,159.197 134.321,160.451 135.885 M119.200 139.348 C 119.200 139.507,119.650 140.086,120.200 140.636 C 120.750 141.186,121.200 141.480,121.200 141.288 C 121.200 141.096,120.750 140.517,120.200 140.000 C 119.650 139.483,119.200 139.190,119.200 139.348 M121.600 141.718 C 121.600 142.119,126.817 147.316,127.018 147.115 C 127.106 147.028,125.922 145.711,124.389 144.189 C 122.855 142.667,121.600 141.555,121.600 141.718 M128.164 148.600 C 128.714 149.150,129.293 149.600,129.452 149.600 C 129.610 149.600,129.317 149.150,128.800 148.600 C 128.283 148.050,127.704 147.600,127.512 147.600 C 127.320 147.600,127.614 148.050,128.164 148.600 M221.796 155.700 L 213.800 163.800 221.900 155.804 C 229.426 148.374,230.181 147.600,229.896 147.600 C 229.839 147.600,226.194 151.245,221.796 155.700 M132.326 152.712 C 132.916 153.324,133.476 153.774,133.568 153.711 C 133.799 153.555,131.935 151.600,131.556 151.600 C 131.388 151.600,131.735 152.101,132.326 152.712 M176.851 152.272 C 177.771 153.398,182.179 157.763,183.015 158.376 C 183.447 158.692,182.184 157.297,180.208 155.276 C 176.870 151.859,175.547 150.675,176.851 152.272 M134.000 154.148 C 134.000 154.307,134.450 154.886,135.000 155.436 C 135.550 155.986,136.000 156.280,136.000 156.088 C 136.000 155.896,135.550 155.317,135.000 154.800 C 134.450 154.283,134.000 153.990,134.000 154.148 M138.000 158.118 C 138.000 158.519,143.217 163.716,143.418 163.515 C 143.506 163.428,142.322 162.111,140.789 160.589 C 139.255 159.067,138.000 157.955,138.000 158.118 M144.564 165.000 C 145.114 165.550,145.693 166.000,145.852 166.000 C 146.010 166.000,145.717 165.550,145.200 165.000 C 144.683 164.450,144.104 164.000,143.912 164.000 C 143.720 164.000,144.014 164.450,144.564 165.000 M207.195 170.300 L 201.000 176.600 207.300 170.405 C 213.153 164.649,213.781 164.000,213.495 164.000 C 213.437 164.000,210.602 166.835,207.195 170.300 M146.964 167.400 C 147.514 167.950,148.093 168.400,148.252 168.400 C 148.410 168.400,148.117 167.950,147.600 167.400 C 147.083 166.850,146.504 166.400,146.312 166.400 C 146.120 166.400,146.414 166.850,146.964 167.400 M193.600 168.991 C 193.600 169.232,198.417 174.007,199.436 174.776 C 199.856 175.093,198.764 173.878,197.009 172.076 C 193.874 168.856,193.600 168.609,193.600 168.991 M150.400 170.548 C 150.400 170.707,150.850 171.286,151.400 171.836 C 151.950 172.386,152.400 172.680,152.400 172.488 C 152.400 172.296,151.950 171.717,151.400 171.200 C 150.850 170.683,150.400 170.390,150.400 170.548 M154.400 174.516 C 154.400 174.916,160.418 180.916,160.618 180.715 C 160.705 180.628,159.341 179.131,157.588 177.388 C 155.835 175.645,154.400 174.352,154.400 174.516 M163.364 183.800 C 163.914 184.350,164.493 184.800,164.652 184.800 C 164.810 184.800,164.517 184.350,164.000 183.800 C 163.483 183.250,162.904 182.800,162.712 182.800 C 162.520 182.800,162.814 183.250,163.364 183.800 M165.926 186.312 C 166.516 186.924,167.076 187.374,167.168 187.311 C 167.399 187.155,165.535 185.200,165.156 185.200 C 164.988 185.200,165.335 185.701,165.926 186.312 M169.200 189.348 C 169.200 189.507,169.650 190.086,170.200 190.636 C 170.750 191.186,171.200 191.480,171.200 191.288 C 171.200 191.096,170.750 190.517,170.200 190.000 C 169.650 189.483,169.200 189.190,169.200 189.348 M171.600 191.718 C 171.600 192.119,176.817 197.316,177.018 197.115 C 177.106 197.028,175.922 195.711,174.389 194.189 C 172.855 192.667,171.600 191.555,171.600 191.718 M177.805 198.262 C 178.422 198.879,177.959 199.440,171.135 206.362 L 163.803 213.800 171.373 206.327 C 178.894 198.903,179.812 197.600,177.522 197.600 C 177.314 197.600,177.441 197.898,177.805 198.262 M225.000 200.800 C 225.859 201.680,226.652 202.400,226.762 202.400 C 226.872 202.400,226.259 201.680,225.400 200.800 C 224.541 199.920,223.748 199.200,223.638 199.200 C 223.528 199.200,224.141 199.920,225.000 200.800 M236.995 212.711 C 240.292 216.060,243.070 218.800,243.167 218.800 C 243.467 218.800,237.584 212.772,234.200 209.611 C 232.440 207.968,233.698 209.363,236.995 212.711 M155.396 222.100 L 147.400 230.200 155.500 222.204 C 159.955 217.806,163.600 214.161,163.600 214.104 C 163.600 213.819,162.826 214.574,155.396 222.100 M167.800 254.304 C 149.540 272.510,134.240 287.634,133.800 287.911 C 133.108 288.348,133.135 288.355,134.000 287.967 C 134.550 287.719,149.895 272.641,168.100 254.459 L 201.200 221.402 234.500 254.601 L 267.800 287.800 234.601 254.500 C 216.341 236.185,201.311 221.200,201.201 221.201 C 201.090 221.201,186.060 236.097,167.800 254.304 M255.795 231.511 C 259.092 234.860,261.870 237.600,261.967 237.600 C 262.267 237.600,256.384 231.572,253.000 228.411 C 251.240 226.768,252.498 228.163,255.795 231.511 M138.596 238.900 L 131.000 246.600 138.700 239.004 C 145.854 231.946,146.581 231.200,146.296 231.200 C 146.239 231.200,142.774 234.665,138.596 238.900 M263.983 239.700 C 264.964 240.745,265.819 241.600,265.883 241.600 C 266.184 241.600,265.866 241.241,264.100 239.583 L 262.200 237.800 263.983 239.700 M271.394 247.136 C 274.251 250.031,276.672 252.400,276.774 252.400 C 277.061 252.400,268.752 243.922,267.400 242.836 C 266.740 242.306,268.537 244.241,271.394 247.136 M121.796 255.700 L 113.800 263.800 121.900 255.804 C 126.355 251.406,130.000 247.761,130.000 247.704 C 130.000 247.419,129.226 248.174,121.796 255.700 M285.400 261.204 C 287.820 263.732,289.870 265.760,289.956 265.711 C 290.215 265.562,287.593 262.781,284.200 259.604 C 281.500 257.076,281.688 257.327,285.400 261.204 M109.368 273.428 C 109.221 274.214,109.279 275.429,109.496 276.128 C 109.847 277.256,109.896 277.094,109.921 274.700 C 109.953 271.697,109.771 271.279,109.368 273.428 M292.509 274.800 C 292.509 275.790,292.587 276.195,292.682 275.700 C 292.778 275.205,292.778 274.395,292.682 273.900 C 292.587 273.405,292.509 273.810,292.509 274.800 M289.695 283.423 C 289.203 284.174,288.800 284.923,288.800 285.087 C 288.800 285.251,289.266 284.700,289.836 283.862 C 290.405 283.024,290.808 282.275,290.731 282.198 C 290.654 282.120,290.188 282.672,289.695 283.423 M111.621 282.737 C 111.594 283.437,116.563 288.406,117.263 288.379 C 117.558 288.367,117.350 288.057,116.800 287.690 C 115.515 286.831,113.169 284.485,112.310 283.200 C 111.943 282.650,111.633 282.442,111.621 282.737 M123.959 290.501 C 124.728 290.701,125.938 290.703,126.757 290.506 C 128.008 290.206,127.828 290.159,125.402 290.155 C 123.038 290.151,122.814 290.205,123.959 290.501 M275.300 290.510 C 276.190 290.729,277.410 290.735,278.300 290.524 C 279.612 290.214,279.424 290.167,276.800 290.155 C 274.166 290.143,273.983 290.186,275.300 290.510 " stroke="none" fill="#e56d6d" fill-rule="evenodd"></path></g></svg>